<mxfile host="65bd71144e">
    <diagram id="RpZMBY6cJjRqWANDFHzv" name="Page-1">
        <mxGraphModel dx="710" dy="1303" grid="1" gridSize="10" guides="1" tooltips="1" connect="1" arrows="1" fold="1" page="1" pageScale="1" pageWidth="850" pageHeight="1100" math="0" shadow="0">
            <root>
                <mxCell id="0"/>
                <mxCell id="1" parent="0"/>
                <mxCell id="2" value="Portfolio" style="swimlane;fontStyle=1;align=center;verticalAlign=top;childLayout=stackLayout;horizontal=1;startSize=26;horizontalStack=0;resizeParent=1;resizeParentMax=0;resizeLast=0;collapsible=1;marginBottom=0;" vertex="1" parent="1">
                    <mxGeometry x="80" y="50" width="170" height="108" as="geometry"/>
                </mxCell>
                <mxCell id="3" value=" + engine_id Uuid&#10;        + markets Vec&lt;Market&gt;&#10;        + repository Repository &#10;        + allocator Allocator &#10;        + risk_manager RiskManager" style="text;strokeColor=none;fillColor=none;align=left;verticalAlign=top;spacingLeft=4;spacingRight=4;overflow=hidden;rotatable=0;points=[[0,0.5],[1,0.5]];portConstraint=eastwest;labelBackgroundColor=none;" vertex="1" parent="2">
                    <mxGeometry y="26" width="170" height="74" as="geometry"/>
                </mxCell>
                <mxCell id="4" value="" style="line;strokeWidth=1;fillColor=none;align=left;verticalAlign=middle;spacingTop=-1;spacingLeft=3;spacingRight=3;rotatable=0;labelPosition=right;points=[];portConstraint=eastwest;strokeColor=inherit;" vertex="1" parent="2">
                    <mxGeometry y="100" width="170" height="8" as="geometry"/>
                </mxCell>
                <mxCell id="6" value="InMemoryRepository&lt;Statistic: PositionSummariser&gt;" style="swimlane;fontStyle=1;align=center;verticalAlign=top;childLayout=stackLayout;horizontal=1;startSize=26;horizontalStack=0;resizeParent=1;resizeParentMax=0;resizeLast=0;collapsible=1;marginBottom=0;labelBackgroundColor=none;fillColor=none;" vertex="1" parent="1">
                    <mxGeometry x="40" y="210" width="350" height="134" as="geometry"/>
                </mxCell>
                <mxCell id="7" value="-open_positions: HashMap&lt;PositionId, Position&gt;,&#10;-closed_positions: HashMap&lt;String, Vec&lt;Position&gt;&gt;,&#10;-current_balances: HashMap&lt;BalanceId, Balance&gt;,&#10;-statistics: HashMap&lt;MarketId, Statistic&gt;," style="text;strokeColor=none;fillColor=none;align=left;verticalAlign=top;spacingLeft=4;spacingRight=4;overflow=hidden;rotatable=0;points=[[0,0.5],[1,0.5]];portConstraint=eastwest;labelBackgroundColor=none;" vertex="1" parent="6">
                    <mxGeometry y="26" width="350" height="74" as="geometry"/>
                </mxCell>
                <mxCell id="8" value="" style="line;strokeWidth=1;fillColor=none;align=left;verticalAlign=middle;spacingTop=-1;spacingLeft=3;spacingRight=3;rotatable=0;labelPosition=right;points=[];portConstraint=eastwest;strokeColor=inherit;labelBackgroundColor=none;" vertex="1" parent="6">
                    <mxGeometry y="100" width="350" height="8" as="geometry"/>
                </mxCell>
                <mxCell id="9" value="+ method(type): type" style="text;strokeColor=none;fillColor=none;align=left;verticalAlign=top;spacingLeft=4;spacingRight=4;overflow=hidden;rotatable=0;points=[[0,0.5],[1,0.5]];portConstraint=eastwest;labelBackgroundColor=none;" vertex="1" parent="6">
                    <mxGeometry y="108" width="350" height="26" as="geometry"/>
                </mxCell>
                <mxCell id="12" value="&lt;p style=&quot;margin:0px;margin-top:4px;text-align:center;&quot;&gt;&lt;i&gt;&amp;lt;&amp;lt;Trait&amp;gt;&amp;gt;&lt;/i&gt;&lt;br&gt;&lt;b&gt;PositionHandler&lt;/b&gt;&lt;/p&gt;&lt;br&gt;&amp;nbsp;+set_open_position(&amp;amp;mut self, position: Position) -&amp;gt; Result&amp;lt;(), RepositoryError&amp;gt;&lt;br style=&quot;padding: 0px; margin: 0px;&quot;&gt;&amp;nbsp;+get_open_position(&amp;amp;mut self, position_id: &amp;amp;PositionId) -&amp;gt; Result&amp;lt;Option&amp;lt;Position&amp;gt;, RepositoryError&amp;gt;&lt;br style=&quot;padding: 0px; margin: 0px;&quot;&gt;&amp;nbsp;+get_open_positions&amp;lt;'a, Markets: Iterator&amp;lt;Item = &amp;amp;'a Market&amp;gt;&amp;gt;(&amp;amp;mut self, engine_id: Uuid, markets: Markets) -&amp;gt; Result&amp;lt;Vec&amp;lt;Position&amp;gt;, RepositoryError&amp;gt;&lt;br style=&quot;padding: 0px; margin: 0px;&quot;&gt;&amp;nbsp;+remove_position(&amp;amp;mut self, position_id: &amp;amp;PositionId) -&amp;gt; Result&amp;lt;Option&amp;lt;Position&amp;gt;, RepositoryError&amp;gt;&lt;br style=&quot;padding: 0px; margin: 0px;&quot;&gt;&amp;nbsp;+set_exited_position(&amp;amp;mut self, engine_id: Uuid, position: Position) -&amp;gt; Result&amp;lt;(), RepositoryError&amp;gt;&lt;br style=&quot;padding: 0px; margin: 0px;&quot;&gt;&amp;nbsp;+get_exited_positions(&amp;amp;mut self, engine_id: Uuid) -&amp;gt; Result&amp;lt;Vec&amp;lt;Position&amp;gt;, RepositoryError&amp;gt;" style="verticalAlign=top;align=left;overflow=fill;fontSize=12;fontFamily=Helvetica;html=1;labelBackgroundColor=none;fillColor=none;" vertex="1" parent="1">
                    <mxGeometry x="30" y="620" width="840" height="140" as="geometry"/>
                </mxCell>
                <mxCell id="13" value="" style="endArrow=block;dashed=1;endFill=0;endSize=12;html=1;exitX=0.5;exitY=0;exitDx=0;exitDy=0;entryX=0.474;entryY=1.134;entryDx=0;entryDy=0;entryPerimeter=0;" edge="1" parent="1" source="12" target="9">
                    <mxGeometry width="160" relative="1" as="geometry">
                        <mxPoint x="200" y="450" as="sourcePoint"/>
                        <mxPoint x="360" y="450" as="targetPoint"/>
                    </mxGeometry>
                </mxCell>
            </root>
        </mxGraphModel>
    </diagram>
</mxfile>